Genre:Horror | Thriller
Language:English
IMDb:http://www.imdb.com/title/tt0810924/
Source:DVD
Subtitles:Romana


Format : MPEG-4
Format profile : Base Media
Codec ID : isom
File size : 1.03 GiB
Duration : 1h 30mn
Overall bit rate : 1 631 Kbps
Movie name : Knife Edge.2010.DvDRip.x264.Feel-Free


Video
Format settings, CABAC : Yes
Format settings, ReFrames : 4 frames
Codec ID : avc1
Codec ID/Info : Advanced Video Coding
Duration : 1h 30mn
Bit rate mode : Variable
Bit rate : 1 248 Kbps
Width : 720 pixels
Height : 384 pixels
Display aspect ratio : 1.875
Frame rate mode : Constant
Frame rate : 25.000 fps
Color space : YUV
Chroma subsampling : 4:2:0
Bit depth : 8 bits
Scan type : Progressive
Bits/(Pixel*Frame) : 0.181
Stream size : 804 MiB (76%)
Writing library : x264

Audio
ID : 2
Format : AAC
Format/Info : Advanced Audio Codec
Format version : Version 4
Format profile : LC
Codec ID : 40
Duration : 1h 30mn
Bit rate mode : Variable
Bit rate : 384 Kbps
Channel(s) : 6 channels
Channel positions : Front: L C R, Side: L R, LFE
Sampling rate : 48.0 KHz
Stream size : 249 MiB (24%)


Plot:
A successful Wall Street trader returns to England with her new husband and five-year-old son, but their new start together turns into a nightmare when they move into a country house which contains a terrible secret





================================== 
http://thepiratebay.org/user/hiest
==================================





Screen Shots:
 
http://www.rapidhdd.com/images/266337vlcsnap-00003.png
 
http://www.rapidhdd.com/images/933144vlcsnap-00004.png
 
http://rapidhdd.com/images/253327vlcsnap-00001.png
 
http://www.rapidhdd.com/images/446875vlcsnap-00002.png
